<?xml version="1.0" encoding="utf-8"?>
<!-- Generator: Adobe Illustrator 16.0.0, SVG Export Plug-In . SVG Version: 6.00 Build 0)  -->
<!DOCTYPE svg PUBLIC "-//W3C//DTD SVG 1.1//EN" "http://www.w3.org/Graphics/SVG/1.1/DTD/svg11.dtd">
<svg version="1.1" id="Layer_1" xmlns="http://www.w3.org/2000/svg" xmlns:xlink="http://www.w3.org/1999/xlink" x="0px" y="0px"
	 width="512px" height="512px" viewBox="0 0 512 512" enable-background="new 0 0 512 512" xml:space="preserve">
<g>
	<path d="M166.589,351.849c77.29,77.305,198.966,82.641,282.688,16.499c2.461-1.938,3.969-4.845,4.161-7.972
		c0.189-3.128-0.97-6.193-3.192-8.417l-283.8-283.785c-2.224-2.222-5.289-3.381-8.417-3.192c-3.127,0.176-6.035,1.699-7.972,4.162
		C83.947,152.882,89.266,274.557,166.589,351.849z M294.299,337.222c3.686-11.481,24.774-45.067,36.303-41.385
		c11.516,3.701,9.053,43.307,5.367,54.804c-3.715,11.546-16.055,17.817-27.567,14.151
		C296.904,361.074,290.566,348.75,294.299,337.222z M273.799,244.56c12.529,12.513-17.136,62.474-29.65,74.971
		c-12.514,12.515-32.824,12.515-45.322,0c-12.514-12.497-12.514-32.808,0-45.323C211.324,261.695,261.285,232.03,273.799,244.56z
		 M167.715,182.389c11.499-3.685,51.105-6.148,54.805,5.366c3.684,11.529-29.902,32.619-41.385,36.305
		c-11.527,3.729-23.853-2.605-27.568-14.103C149.897,198.443,156.172,186.104,167.715,182.389z"/>
	<path d="M504.287,404.856l-21.375-21.566c-4.129-4.175-10.814-4.35-15.168-0.412c-92.168,83.548-235.474,80.815-324.277-7.989
		c-88.787-88.802-91.535-232.107-7.988-324.278c3.939-4.366,3.765-11.037-0.413-15.166L113.5,14.071
		c-2.127-2.096-5.018-3.241-8.003-3.176c-2.985,0.079-5.812,1.365-7.83,3.573C-5.428,127.107-2.361,302.999,106.498,411.86
		c108.859,108.859,284.768,111.925,397.392,8.831c2.206-2.019,3.493-4.844,3.573-7.83
		C507.543,409.875,506.383,406.985,504.287,404.856z"/>
</g>
</svg>
